<svg xmlns="http://www.w3.org/2000/svg" width="142.336" height="55.465" viewBox="0 0 142.336 55.465">
  <g id="react" transform="translate(2 2.732)">
    <g id="download" transform="translate(0 0)">
      <ellipse id="Ellipse_1" data-name="Ellipse 1" cx="4.408" cy="4.408" rx="4.408" ry="4.408" transform="translate(19.245 20.592)" fill="#00d3d3"/>
      <g id="Group_10" data-name="Group 10" transform="translate(0 0)">
        <ellipse id="Ellipse_2" data-name="Ellipse 2" cx="23.653" cy="9.031" rx="23.653" ry="9.031" transform="translate(0 15.969)" fill="none" stroke="#00d3d3" stroke-width="4"/>
        <ellipse id="Ellipse_3" data-name="Ellipse 3" cx="23.653" cy="9.031" rx="23.653" ry="9.031" transform="translate(19.648) rotate(60)" fill="none" stroke="#00d3d3" stroke-width="4"/>
        <ellipse id="Ellipse_4" data-name="Ellipse 4" cx="23.653" cy="9.031" rx="23.653" ry="9.031" transform="translate(43.301 9.031) rotate(120)" fill="none" stroke="#00d3d3" stroke-width="4"/>
      </g>
    </g>
    <path id="React-2" data-name="React" d="M9.611-8.053H4.936V0H2.3V-19.906h6.59a7.8,7.8,0,0,1,5.175,1.531,5.509,5.509,0,0,1,1.812,4.457,5.359,5.359,0,0,1-1,3.24,6,6,0,0,1-2.8,2.064L16.748-.164V0H13.932ZM4.936-10.2H8.969a4.549,4.549,0,0,0,3.11-1.014,3.427,3.427,0,0,0,1.155-2.712,3.609,3.609,0,0,0-1.1-2.835,4.66,4.66,0,0,0-3.179-1H4.936ZM29.213.273A6.463,6.463,0,0,1,24.318-1.7a7.332,7.332,0,0,1-1.887-5.284v-.465a8.877,8.877,0,0,1,.841-3.931,6.559,6.559,0,0,1,2.352-2.707,5.912,5.912,0,0,1,3.274-.978,5.54,5.54,0,0,1,4.484,1.9,8.228,8.228,0,0,1,1.6,5.441v1.053H24.961a5.258,5.258,0,0,0,1.278,3.534,4.018,4.018,0,0,0,3.11,1.347,4.405,4.405,0,0,0,2.27-.547,5.7,5.7,0,0,0,1.627-1.449l1.545,1.2A6.212,6.212,0,0,1,29.213.273ZM28.9-12.988a3.374,3.374,0,0,0-2.57,1.114A5.416,5.416,0,0,0,25.043-8.75h7.41v-.191a4.817,4.817,0,0,0-1.039-2.987A3.176,3.176,0,0,0,28.9-12.988ZM50.961,0a5.313,5.313,0,0,1-.355-1.559A5.643,5.643,0,0,1,46.395.273,5.222,5.222,0,0,1,42.806-.964,4,4,0,0,1,41.4-4.1,4.182,4.182,0,0,1,43.161-7.69,8.283,8.283,0,0,1,48.1-8.969h2.461v-1.162a2.841,2.841,0,0,0-.793-2.112,3.187,3.187,0,0,0-2.338-.786,3.688,3.688,0,0,0-2.27.684,2.014,2.014,0,0,0-.916,1.654H41.705a3.491,3.491,0,0,1,.786-2.14,5.365,5.365,0,0,1,2.133-1.634,7.175,7.175,0,0,1,2.96-.6,5.848,5.848,0,0,1,4.006,1.278,4.611,4.611,0,0,1,1.5,3.521v6.809a8.324,8.324,0,0,0,.52,3.24V0Zm-4.2-1.928a4.445,4.445,0,0,0,2.256-.615,3.721,3.721,0,0,0,1.545-1.6V-7.178H48.582q-4.648,0-4.648,2.721A2.3,2.3,0,0,0,44.727-2.6,3.048,3.048,0,0,0,46.764-1.928Zm20.149.137a3.643,3.643,0,0,0,2.365-.82A2.886,2.886,0,0,0,70.4-4.662h2.393a4.587,4.587,0,0,1-.875,2.42A5.763,5.763,0,0,1,69.763-.41a6.213,6.213,0,0,1-2.851.684,6.094,6.094,0,0,1-4.806-2.017A8.032,8.032,0,0,1,60.323-7.26v-.424a8.906,8.906,0,0,1,.793-3.842,6.04,6.04,0,0,1,2.276-2.611,6.466,6.466,0,0,1,3.507-.93,5.933,5.933,0,0,1,4.136,1.49,5.326,5.326,0,0,1,1.757,3.869H70.4a3.486,3.486,0,0,0-1.087-2.358,3.381,3.381,0,0,0-2.413-.923A3.54,3.54,0,0,0,63.911-11.6a6.517,6.517,0,0,0-1.06,4.013v.479A6.387,6.387,0,0,0,63.9-3.172,3.557,3.557,0,0,0,66.912-1.791ZM82.987-18.375v3.582h2.762v1.955H82.987v9.185a2.053,2.053,0,0,0,.369,1.335,1.554,1.554,0,0,0,1.258.445,6.124,6.124,0,0,0,1.2-.164V0a7.376,7.376,0,0,1-1.941.272A3.15,3.15,0,0,1,81.319-.752a4.405,4.405,0,0,1-.861-2.912v-9.174H77.764v-1.955h2.693v-3.582Z" transform="translate(54.519 34.05)" fill="#fff"/>
  </g>
</svg>
