<svg xmlns="http://www.w3.org/2000/svg" width="197.129" height="48.932" viewBox="0 0 197.129 48.932">
  <g id="redux" transform="translate(0 -1.068)">
    <g id="redux-2" data-name="redux" transform="translate(0 1.068)">
      <path id="Path_296" data-name="Path 296" d="M46.867,59.414a3.684,3.684,0,0,0-.393-7.346h-.131a3.67,3.67,0,0,0-3.542,3.8A3.767,3.767,0,0,0,43.851,58.3c-2.23,4.395-5.641,7.609-10.757,10.3A17.738,17.738,0,0,1,22.4,70.63a9.118,9.118,0,0,1-6.69-3.87,9.635,9.635,0,0,1-.525-10.167,15.44,15.44,0,0,1,4.46-5.247c-.262-.853-.656-2.3-.853-3.345-9.511,6.887-8.526,16.2-5.641,20.6,2.165,3.279,6.559,5.312,11.413,5.312a16.125,16.125,0,0,0,3.936-.459A25.167,25.167,0,0,0,46.867,59.414Z" transform="translate(-11.154 -25.24)" fill="#00d3d3"/>
      <path id="Path_297" data-name="Path 297" d="M67.993,47.219c-4.985-5.838-12.331-9.052-20.727-9.052H46.217A3.6,3.6,0,0,0,43,36.2h-.131A3.674,3.674,0,1,0,43,43.547h.131a3.7,3.7,0,0,0,3.215-2.23h1.181A25,25,0,0,1,61.5,45.58a17.572,17.572,0,0,1,6.953,8.4,9.091,9.091,0,0,1-.131,7.74,9.63,9.63,0,0,1-8.986,5.379,16.775,16.775,0,0,1-6.428-1.377c-.722.656-2.033,1.705-2.952,2.361a20.246,20.246,0,0,0,8.461,2.033c6.3,0,10.954-3.476,12.725-6.953,1.9-3.8,1.771-10.363-3.148-15.939Z" transform="translate(-20.736 -21.179)" fill="#00d3d3"/>
      <path id="Path_298" data-name="Path 298" d="M30.489,48.587a3.684,3.684,0,0,0,3.673,3.542h.131a3.674,3.674,0,1,0-.131-7.347h-.131a1.116,1.116,0,0,0-.459.066A24.033,24.033,0,0,1,30.16,30.287a17.6,17.6,0,0,1,3.87-10.167c1.9-2.427,5.575-3.606,8.068-3.673,6.953-.131,9.9,8.526,10.1,12,.853.2,2.3.656,3.279.984C54.691,18.809,48.131,13.3,41.836,13.3c-5.9,0-11.347,4.263-13.512,10.56-3.017,8.4-1.049,16.463,2.624,22.826a2.946,2.946,0,0,0-.459,1.9Z" transform="translate(-16.552 -13.299)" fill="#00d3d3"/>
    </g>
    <path id="Redux-3" data-name="Redux" d="M14.074-11.792H7.227V0H3.363V-29.148h9.649q4.925,0,7.577,2.242a8.067,8.067,0,0,1,2.653,6.526,7.847,7.847,0,0,1-1.471,4.745,8.784,8.784,0,0,1-4.094,3.023L24.524-.24V0H20.4ZM7.227-14.935h5.906a6.661,6.661,0,0,0,4.554-1.484,5.019,5.019,0,0,0,1.692-3.971,5.285,5.285,0,0,0-1.612-4.151,6.824,6.824,0,0,0-4.655-1.464H7.227ZM42.776.4a9.464,9.464,0,0,1-7.167-2.893,10.737,10.737,0,0,1-2.763-7.738v-.681a13,13,0,0,1,1.231-5.756,9.6,9.6,0,0,1,3.443-3.964,8.657,8.657,0,0,1,4.795-1.431,8.112,8.112,0,0,1,6.566,2.783q2.342,2.783,2.342,7.968V-9.77H36.55a7.7,7.7,0,0,0,1.872,5.175,5.884,5.884,0,0,0,4.554,1.972,6.451,6.451,0,0,0,3.323-.8,8.35,8.35,0,0,0,2.382-2.122l2.262,1.762A9.1,9.1,0,0,1,42.776.4Zm-.46-19.419a4.94,4.94,0,0,0-3.764,1.632,7.93,7.93,0,0,0-1.882,4.574H47.521v-.28A7.054,7.054,0,0,0,46-17.467,4.651,4.651,0,0,0,42.316-19.019Zm18.032,8.008a12.689,12.689,0,0,1,2.362-8.018A7.47,7.47,0,0,1,68.9-22.062a7.512,7.512,0,0,1,6.026,2.6V-30.75h3.7V0h-3.4l-.18-2.322A7.542,7.542,0,0,1,68.856.4,7.4,7.4,0,0,1,62.72-2.683a12.833,12.833,0,0,1-2.372-8.048Zm3.7.42a9.608,9.608,0,0,0,1.521,5.766,4.919,4.919,0,0,0,4.2,2.082,5.4,5.4,0,0,0,5.145-3.163v-9.95a5.444,5.444,0,0,0-5.1-3.063,4.942,4.942,0,0,0-4.244,2.1Q64.051-14.714,64.051-10.59Zm39.433,8.448A7.867,7.867,0,0,1,97.138.4a6.734,6.734,0,0,1-5.275-2.012q-1.812-2.012-1.832-5.956V-21.661h3.7V-7.667q0,4.925,4,4.925,4.244,0,5.646-3.163V-21.661h3.7V0h-3.523ZM125.72-13.753l4.8-7.908h4.324l-7.087,10.71L135.069,0h-4.284l-5-8.108-5,8.108h-4.3l7.307-10.951-7.087-10.71h4.284Z" transform="translate(62.059 39)" fill="#fff"/>
  </g>
</svg>
