<svg xmlns="http://www.w3.org/2000/svg" width="148.876" height="47.84" viewBox="0 0 148.876 47.84">
  <g id="sass" transform="translate(4800.785 17905.84)">
    <path id="Path_6" data-name="Path 6" d="M55.383,27.955a13.2,13.2,0,0,0-5.779,1.34A12.172,12.172,0,0,1,48.31,26.3a8.039,8.039,0,0,1-.117-2.517,22.393,22.393,0,0,1,.757-2.715c-.011-.117-.14-.664-1.422-.676s-2.389.245-2.517.583a14.065,14.065,0,0,0-.536,1.9c-.221,1.165-2.563,5.325-3.9,7.5a8.1,8.1,0,0,1-.886-2.191,8.04,8.04,0,0,1-.116-2.517,22.392,22.392,0,0,1,.757-2.715c-.012-.117-.14-.664-1.422-.676s-2.389.245-2.517.583-.268,1.13-.536,1.9-3.379,7.713-4.195,9.508c-.42.921-.781,1.655-1.037,2.156h0a.535.535,0,0,1-.047.093c-.221.431-.349.664-.349.664v.011c-.175.315-.361.606-.455.606A3.9,3.9,0,0,1,29.8,35.82c.466-2.412,1.573-6.164,1.561-6.292,0-.07.21-.722-.722-1.06a1.157,1.157,0,0,0-1.317.221c-.081,0-.14.2-.14.2s1.014-4.218-1.934-4.218c-1.841,0-4.381,2.016-5.639,3.833-.792.431-2.482,1.352-4.288,2.342-.687.385-1.4.769-2.062,1.13-.047-.046-.093-.1-.14-.151-3.565-3.81-10.16-6.5-9.881-11.617.1-1.864.746-6.758,12.665-12.7,9.811-4.835,17.617-3.5,18.969-.524,1.934,4.241-4.183,12.118-14.32,13.26-3.868.431-5.9-1.06-6.408-1.62-.536-.583-.618-.618-.816-.5-.326.175-.117.7,0,1A5.983,5.983,0,0,0,18.983,22c1.864.606,6.4.944,11.885-1.177,6.14-2.377,10.941-8.983,9.531-14.518C38.989.69,29.668-1.162,20.847,1.972,15.6,3.836,9.918,6.772,5.829,10.594.97,15.138.2,19.088.515,20.743c1.13,5.872,9.228,9.694,12.467,12.525-.163.093-.315.175-.443.245-1.62.8-7.795,4.031-9.333,7.445-1.748,3.868.28,6.641,1.62,7.014a9.964,9.964,0,0,0,10.731-4.346,10.764,10.764,0,0,0,.955-9.915.244.244,0,0,0-.047-.07c.419-.245.851-.5,1.27-.746.827-.489,1.643-.944,2.342-1.317a15.354,15.354,0,0,0-.827,4.241c-.175,2.191.722,5.033,1.9,6.152a2.1,2.1,0,0,0,1.538.5c1.375,0,1.992-1.142,2.68-2.493.839-1.654,1.6-3.577,1.6-3.577s-.944,5.2,1.62,5.2c.932,0,1.876-1.212,2.3-1.829v.011s.023-.035.07-.116l.151-.245V39.4c.373-.653,1.212-2.132,2.458-4.591,1.608-3.169,3.158-7.131,3.158-7.131a20.228,20.228,0,0,0,.617,2.575,24.247,24.247,0,0,0,1.328,2.983c-.373.524-.606.816-.606.816l.012.012c-.3.4-.629.827-.99,1.247a37.158,37.158,0,0,0-2.994,3.752,1.019,1.019,0,0,0,.28,1.375,2.544,2.544,0,0,0,1.561.256,7.174,7.174,0,0,0,2.342-.536,7.857,7.857,0,0,0,2.016-1.06,4.51,4.51,0,0,0,1.934-3.973,8.023,8.023,0,0,0-.734-2.808c.117-.163.221-.326.338-.489a53.4,53.4,0,0,0,3.5-6.036,20.224,20.224,0,0,0,.617,2.575,17.268,17.268,0,0,0,1.13,2.563,11.076,11.076,0,0,0-3.4,4.393c-.734,2.121-.163,3.076.921,3.3a3.247,3.247,0,0,0,1.7-.35,7.748,7.748,0,0,0,2.156-1.107,4.845,4.845,0,0,0,2.377-3.938,7.445,7.445,0,0,0-.536-2.331,12.2,12.2,0,0,1,6.187-.711c5.546.652,6.641,4.113,6.432,5.569a3.687,3.687,0,0,1-1.759,2.493c-.385.245-.513.326-.478.5.046.256.233.245.559.2a4.331,4.331,0,0,0,3.018-3.857c.175-3.426-3.088-7.166-8.855-7.131ZM12.6,42.38c-1.841,2-4.4,2.761-5.511,2.121-1.188-.688-.722-3.647,1.538-5.768a29.359,29.359,0,0,1,4.323-3.228c.268-.163.664-.4,1.142-.687.082-.047.128-.07.128-.07h0l.28-.175a7.958,7.958,0,0,1-1.9,7.807ZM26,33.268c-.641,1.561-1.981,5.558-2.8,5.337-.7-.186-1.13-3.216-.14-6.21a14.1,14.1,0,0,1,2.179-4c1-1.119,2.109-1.491,2.377-1.037.338.594-1.223,4.928-1.619,5.907Zm11.057,5.29c-.268.14-.524.233-.641.163-.081-.047.117-.233.117-.233S37.917,37,38.465,36.321c.315-.4.687-.862,1.084-1.387v.151c0,1.783-1.725,2.983-2.493,3.472Zm8.529-1.946c-.2-.14-.163-.606.5-2.062a7.765,7.765,0,0,1,1.9-2.447,3.3,3.3,0,0,1,.186,1.072,3.525,3.525,0,0,1-2.587,3.437Z" transform="translate(-4801.239 -17906.293)" fill="#00d3d3"/>
    <path id="socket.io" d="M8.461-15.466a12.227,12.227,0,0,1-4.869-2.363,4.515,4.515,0,0,1-1.524-3.46,4.77,4.77,0,0,1,1.862-3.853,7.4,7.4,0,0,1,4.842-1.524,8.079,8.079,0,0,1,3.623.786,5.957,5.957,0,0,1,2.465,2.167,5.541,5.541,0,0,1,.874,3.02H13.12a3.606,3.606,0,0,0-1.138-2.82,4.626,4.626,0,0,0-3.21-1.026,4.736,4.736,0,0,0-3,.848A2.829,2.829,0,0,0,4.7-21.338,2.545,2.545,0,0,0,5.718-19.3,10.03,10.03,0,0,0,9.2-17.769a16.15,16.15,0,0,1,3.846,1.525A5.837,5.837,0,0,1,15.1-14.3a4.96,4.96,0,0,1,.67,2.614,4.607,4.607,0,0,1-1.869,3.84,7.969,7.969,0,0,1-5,1.442,9.269,9.269,0,0,1-3.792-.779A6.382,6.382,0,0,1,2.4-9.317a5.206,5.206,0,0,1-.955-3.074H4.059A3.4,3.4,0,0,0,5.38-9.567,5.56,5.56,0,0,0,8.908-8.531a5.111,5.111,0,0,0,3.156-.84,2.727,2.727,0,0,0,1.1-2.289A2.678,2.678,0,0,0,12.145-13.9,11.711,11.711,0,0,0,8.461-15.466Zm23.183,8.79a5.263,5.263,0,0,1-.352-1.544A5.59,5.59,0,0,1,27.12-6.405a5.173,5.173,0,0,1-3.555-1.226,3.966,3.966,0,0,1-1.388-3.108,4.143,4.143,0,0,1,1.74-3.555,8.205,8.205,0,0,1,4.9-1.266h2.438v-1.151a2.814,2.814,0,0,0-.786-2.092,3.157,3.157,0,0,0-2.316-.779,3.653,3.653,0,0,0-2.248.677,2,2,0,0,0-.907,1.639H22.474a3.458,3.458,0,0,1,.779-2.12A5.315,5.315,0,0,1,25.366-21a7.108,7.108,0,0,1,2.932-.6,5.793,5.793,0,0,1,3.968,1.266,4.568,4.568,0,0,1,1.49,3.487V-10.1a8.246,8.246,0,0,0,.515,3.21v.217Zm-4.158-1.91a4.4,4.4,0,0,0,2.235-.609,3.686,3.686,0,0,0,1.53-1.585v-3.007H29.287q-4.6,0-4.6,2.7a2.281,2.281,0,0,0,.786,1.842A3.019,3.019,0,0,0,27.486-8.586ZM50.1-10.563a1.845,1.845,0,0,0-.765-1.578,7.365,7.365,0,0,0-2.668-.968,12.614,12.614,0,0,1-3.02-.975,4.3,4.3,0,0,1-1.652-1.354,3.24,3.24,0,0,1-.535-1.869,3.8,3.8,0,0,1,1.524-3.047A5.95,5.95,0,0,1,46.876-21.6a6.123,6.123,0,0,1,4.043,1.287,4.087,4.087,0,0,1,1.551,3.291H49.95a2.262,2.262,0,0,0-.874-1.774,3.273,3.273,0,0,0-2.2-.745,3.426,3.426,0,0,0-2.14.6,1.876,1.876,0,0,0-.772,1.557,1.52,1.52,0,0,0,.718,1.368,8.832,8.832,0,0,0,2.594.88,13.514,13.514,0,0,1,3.041,1,4.435,4.435,0,0,1,1.727,1.4,3.446,3.446,0,0,1,.562,2A3.75,3.75,0,0,1,51.034-7.59a6.59,6.59,0,0,1-4.077,1.185,7.379,7.379,0,0,1-3.115-.623,5.066,5.066,0,0,1-2.12-1.74,4.2,4.2,0,0,1-.765-2.418h2.506a2.594,2.594,0,0,0,1.009,2,3.914,3.914,0,0,0,2.485.738,4.041,4.041,0,0,0,2.282-.576A1.769,1.769,0,0,0,50.1-10.563Zm18.185,0a1.845,1.845,0,0,0-.765-1.578,7.365,7.365,0,0,0-2.668-.968,12.614,12.614,0,0,1-3.02-.975,4.3,4.3,0,0,1-1.652-1.354,3.24,3.24,0,0,1-.535-1.869,3.8,3.8,0,0,1,1.524-3.047A5.95,5.95,0,0,1,65.061-21.6,6.123,6.123,0,0,1,69.1-20.314a4.087,4.087,0,0,1,1.551,3.291H68.135a2.262,2.262,0,0,0-.874-1.774,3.273,3.273,0,0,0-2.2-.745,3.426,3.426,0,0,0-2.14.6,1.876,1.876,0,0,0-.772,1.557,1.52,1.52,0,0,0,.718,1.368,8.832,8.832,0,0,0,2.594.88,13.514,13.514,0,0,1,3.041,1,4.435,4.435,0,0,1,1.727,1.4,3.447,3.447,0,0,1,.562,2A3.75,3.75,0,0,1,69.219-7.59a6.59,6.59,0,0,1-4.077,1.185,7.379,7.379,0,0,1-3.115-.623,5.066,5.066,0,0,1-2.12-1.74,4.2,4.2,0,0,1-.765-2.418h2.506a2.594,2.594,0,0,0,1.009,2,3.914,3.914,0,0,0,2.485.738,4.041,4.041,0,0,0,2.282-.576A1.769,1.769,0,0,0,68.284-10.563Z" transform="translate(-4722.698 -17865.551)" fill="#fff"/>
  </g>
</svg>
