<svg id="typescript" xmlns="http://www.w3.org/2000/svg" width="216.211" height="50" viewBox="0 0 216.211 50">
  <g id="typescript-seeklogo.com" transform="translate(0)">
    <path id="Path_317" data-name="Path 317" d="M0-231v25H50v-50H0Z" transform="translate(0 256)" fill="#00d3d3"/>
    <path id="Path_318" data-name="Path 318" d="M17.6,20.54l.016-2.048H11.111V0h-4.6V18.493H0V20.5a19.7,19.7,0,0,0,.055,2.063c.024.032,3.984.048,8.786.04l8.738-.024Z" transform="translate(28.66 45.705) rotate(180)" fill="#fff"/>
    <path id="Path_319" data-name="Path 319" d="M163.657-235.118a6.223,6.223,0,0,1,3.127,1.8,8.25,8.25,0,0,1,1.2,1.6c.016.063-2.159,1.524-3.476,2.341-.048.032-.238-.175-.453-.492a2.836,2.836,0,0,0-2.349-1.413c-1.517-.1-2.492.69-2.484,2.016a1.832,1.832,0,0,0,.214.937c.333.691.952,1.1,2.9,1.945,3.579,1.54,5.111,2.556,6.063,4a7.255,7.255,0,0,1,.579,6.1c-.793,2.079-2.762,3.492-5.532,3.96a15.316,15.316,0,0,1-3.809-.04,9.189,9.189,0,0,1-5.087-2.651,8.834,8.834,0,0,1-1.3-1.929,3.728,3.728,0,0,1,.46-.293c.222-.127,1.064-.611,1.857-1.071l1.436-.833.3.444a6.71,6.71,0,0,0,1.9,1.818,4.642,4.642,0,0,0,4.865-.246,1.84,1.84,0,0,0,.651-1.5,1.831,1.831,0,0,0-.373-1.27c-.389-.556-1.182-1.024-3.437-2-2.579-1.111-3.69-1.8-4.706-2.9a6.593,6.593,0,0,1-1.373-2.5,10.042,10.042,0,0,1-.087-3.19,6.094,6.094,0,0,1,5.127-4.746A12.619,12.619,0,0,1,163.657-235.118Z" transform="translate(-123.312 258.186)" fill="#fff"/>
  </g>
  <path id="Path_1383" data-name="Path 1383" d="M12.355-108.31h1.716v-20.869H21v-1.435H5.43v1.435h6.925Zm11.511,5.677h1.716l9.046-21.992H32.943l-5.209,13.008L22.15-124.625H20.372l6.458,14.911Zm14.131,0H39.65v-9.39a6.621,6.621,0,0,0,6.208,3.962c4.211,0,7.331-3.213,7.331-8.329v-.25c0-5.084-3.213-8.235-7.331-8.235a6.987,6.987,0,0,0-6.208,4.055v-3.806H38Zm7.736-6.832c-3.4,0-6.114-2.4-6.114-6.863v-.25c0-4.492,2.9-6.894,6.084-6.894,3.119,0,5.771,2.4,5.771,6.894v.25C51.473-111.96,49.165-109.465,45.733-109.465Zm17.874,1.4c3.494,0,6.084-1.685,6.769-4.8H68.724c-.562,2.277-2.4,3.4-5.116,3.4-3.868,0-5.958-2.5-6.021-6.863H70.5v-.593c0-5.4-3.213-7.955-7.144-7.955-4.367,0-7.487,3.4-7.487,8.329v.25C55.872-111.4,58.9-108.061,63.608-108.061Zm-5.958-9.608c.312-3.556,2.558-5.8,5.709-5.8,3.182,0,5.272,1.84,5.428,5.8Zm23.77,9.608c4.492,0,7.455-2.808,7.455-6.332,0-4.18-2.4-5.584-7.394-6.332-4.648-.686-5.865-2-5.865-4.429,0-2.683,1.965-4.274,5.4-4.274,3.307,0,5.054,1.4,5.584,4.18h1.591c-.5-3.556-3.026-5.615-7.175-5.615-4.18,0-7.019,2.371-7.019,5.833,0,3.525,2.34,5.147,7.206,5.865,4.492.686,5.989,1.778,5.989,4.9,0,2.745-2.277,4.773-5.771,4.773-4.648,0-6.208-2.4-6.582-5.209H73.122C73.59-111.055,75.9-108.061,81.42-108.061Zm18.311,0a6.69,6.69,0,0,0,6.956-5.9h-1.529a5.134,5.134,0,0,1-5.428,4.491c-3.431,0-6.084-2.527-6.084-6.832v-.25c0-4.3,2.683-6.925,6.084-6.925,2.558,0,4.773,1.279,5.178,4.024h1.622c-.437-3.681-3.494-5.428-6.8-5.428-4.3,0-7.8,3.338-7.8,8.329v.25C91.932-111.336,95.333-108.061,99.731-108.061Zm10.762-.25h1.653v-9.046c0-4.336,2.371-5.8,5.521-5.927v-1.56a5.816,5.816,0,0,0-5.521,3.65v-3.431h-1.653Zm10.918,0h1.653v-16.315h-1.653Zm.811-19.809a1.159,1.159,0,0,0,.826-.35,1.159,1.159,0,0,0,.328-.835,1.151,1.151,0,0,0-.337-.817,1.151,1.151,0,0,0-.817-.337,1.179,1.179,0,0,0-1.185,1.155A1.185,1.185,0,0,0,122.222-128.119Zm6.021,25.486H129.9v-9.39a6.621,6.621,0,0,0,6.208,3.962c4.211,0,7.331-3.213,7.331-8.329v-.25c0-5.084-3.213-8.235-7.331-8.235a6.987,6.987,0,0,0-6.208,4.055v-3.806h-1.653Zm7.736-6.832c-3.4,0-6.114-2.4-6.114-6.863v-.25c0-4.492,2.9-6.894,6.083-6.894,3.119,0,5.771,2.4,5.771,6.894v.25C141.719-111.96,139.41-109.465,135.979-109.465Zm15.972,1.373a6.041,6.041,0,0,0,2.152-.343v-1.4a6.287,6.287,0,0,1-2.059.343c-1.5,0-2.433-.9-2.433-2.87v-10.856h4.274v-1.4h-4.274v-3.712h-1.653v3.712h-2.4v1.4h2.4v10.98c0,2.62,1.4,4.149,3.993,4.149Z" transform="translate(62.108 143.475)" fill="#fff"/>
</svg>
